<?xml version="1.0" standalone="no"?>
<!DOCTYPE svg PUBLIC "-//W3C//DTD SVG 20010904//EN"
 "http://www.w3.org/TR/2001/REC-SVG-20010904/DTD/svg10.dtd">
<svg version="1.0" xmlns="http://www.w3.org/2000/svg"
 width="115.000000pt" height="109.000000pt" viewBox="0 0 115.000000 109.000000"
 preserveAspectRatio="xMidYMid meet">

<g transform="translate(0.000000,109.000000) scale(0.100000,-0.100000)"
fill="#000000" stroke="none">
<path d="M754 1004 c21 -20 21 -41 1 -24 -14 11 -19 7 -16 -13 1 -4 -12 -10
-29 -14 -17 -3 -33 -10 -36 -14 -3 -5 -14 -9 -25 -9 -14 0 -18 -4 -13 -12 6
-10 4 -10 -8 0 -13 10 -17 10 -21 -1 -5 -12 2 -14 58 -20 27 -3 34 -56 9 -74
-10 -7 -13 -13 -8 -13 5 0 18 -14 28 -30 17 -30 17 -32 -4 -72 -19 -36 -21
-53 -17 -147 5 -107 -2 -141 -28 -141 -11 0 -15 21 -17 98 -3 95 -4 97 -28
100 -56 8 -79 58 -54 117 14 34 14 36 -3 33 -11 -2 -18 -12 -17 -25 1 -29 -16
-19 -17 10 -4 66 -22 -98 -23 -212 -1 -104 -4 -135 -15 -139 -22 -7 -31 19
-31 95 l0 71 -31 -5 c-20 -3 -35 0 -40 9 -5 8 -9 -20 -9 -67 0 -88 -8 -109
-36 -103 -17 3 -19 12 -15 90 2 47 0 109 -4 137 -6 43 -9 50 -21 40 -12 -10
-13 -9 -7 6 5 14 3 17 -8 13 -12 -5 -14 0 -11 22 4 26 3 27 -45 25 -26 -1 -51
3 -55 9 -4 6 -10 -8 -14 -32 -6 -35 -8 -40 -18 -26 -20 26 -35 -4 -45 -87 -11
-80 -3 -136 27 -217 38 -100 156 -222 270 -280 40 -20 89 -46 109 -56 48 -26
144 -45 221 -46 50 0 70 5 102 25 22 14 47 25 56 25 10 0 14 3 11 6 -4 4 13
17 36 30 24 13 41 29 41 38 -1 9 2 13 6 11 12 -7 50 46 95 130 30 58 35 77 31
110 -5 30 -4 36 5 25 8 -12 9 -10 5 11 -3 14 -2 29 1 33 13 12 4 158 -13 216
-36 129 -153 268 -276 331 -65 33 -76 36 -54 13z m96 -186 c29 -47 27 -113 -4
-141 -23 -21 -24 -29 -25 -151 -1 -71 -3 -131 -6 -134 -2 -2 -12 -2 -21 2 -14
5 -16 23 -13 135 l4 129 -27 22 c-43 33 -36 82 20 143 33 35 48 34 72 -5z
m-733 -150 c-3 -8 -6 -5 -6 6 -1 11 2 17 5 13 3 -3 4 -12 1 -19z m797 -84 c31
-12 16 -24 -29 -24 -42 0 -54 7 -38 23 8 9 46 9 67 1z m-539 -257 c34 -48 3
-101 -55 -95 l-33 3 1 58 c0 31 1 58 1 60 1 2 17 1 36 -1 21 -3 41 -13 50 -25z
m301 5 c-3 -5 -17 -7 -31 -4 -14 2 -25 0 -25 -6 0 -6 12 -12 28 -14 33 -4 32
-22 -3 -26 -32 -4 -33 -22 0 -22 16 0 25 -6 25 -15 0 -11 -11 -15 -40 -15
l-40 0 0 59 0 60 38 3 c39 3 58 -4 48 -20z m-242 -45 c-1 -54 -8 -77 -19 -65
-3 2 -8 33 -12 67 -6 58 -5 63 13 59 16 -3 19 -12 18 -61z m68 36 l28 -27 0
28 c0 21 4 27 18 24 12 -2 18 -15 20 -47 2 -24 1 -50 -3 -59 -5 -13 -9 -12
-28 4 -54 48 -58 49 -51 15 5 -24 3 -31 -9 -31 -12 0 -16 14 -19 60 -1 33 1
60 6 60 6 0 23 -12 38 -27z m230 -39 c-6 -85 -17 -90 -28 -11 -7 52 0 81 19
74 8 -3 11 -22 9 -63z m68 35 l35 -30 3 31 c2 18 9 30 18 30 11 0 14 -15 14
-60 0 -33 -4 -60 -9 -60 -6 0 -22 11 -37 25 -31 29 -48 32 -40 8 5 -17 -9 -52
-17 -43 -8 9 -17 130 -9 130 4 -1 23 -14 42 -31z"/>
<path d="M310 303 c0 -28 16 -47 35 -40 25 10 15 51 -12 55 -17 3 -23 -2 -23
-15z"/>
<path d="M501 824 c0 -11 3 -14 6 -6 3 7 2 16 -1 19 -3 4 -6 -2 -5 -13z"/>
<path d="M530 821 c0 -4 11 -6 25 -3 14 2 25 6 25 8 0 2 -11 4 -25 4 -14 0
-25 -4 -25 -9z"/>
<path d="M366 717 c5 -55 3 -81 -5 -91 -20 -24 -4 -36 26 -21 15 8 30 12 35 9
19 -12 29 9 13 26 -10 11 -17 35 -17 56 0 27 -8 44 -30 67 l-29 31 7 -77z"/>
</g>
</svg>
