<?xml version="1.0" standalone="no"?>
<!DOCTYPE svg PUBLIC "-//W3C//DTD SVG 20010904//EN"
 "http://www.w3.org/TR/2001/REC-SVG-20010904/DTD/svg10.dtd">
<svg version="1.0" xmlns="http://www.w3.org/2000/svg"
 width="327.000000pt" height="463.000000pt" viewBox="0 0 327.000000 463.000000"
 preserveAspectRatio="xMidYMid meet">

<g transform="translate(0.000000,463.000000) scale(0.100000,-0.100000)"
fill="#000000" stroke="none">
<path d="M1878 3240 c-29 -22 -46 -60 -153 -345 -41 -110 -98 -254 -125 -320
-83 -200 -170 -436 -172 -464 -2 -37 22 -141 33 -141 5 0 9 7 9 15 0 12 5 12
23 4 15 -7 23 -19 22 -37 0 -23 6 -28 55 -43 99 -30 119 -32 116 -14 -1 9 -9
21 -17 27 -11 7 -9 8 6 3 11 -3 32 -9 48 -12 23 -5 25 -7 12 -17 -8 -6 -11
-15 -7 -21 7 -10 191 -75 212 -75 17 0 11 28 -7 39 -25 14 -5 12 37 -4 19 -7
29 -14 23 -14 -20 -1 -15 -29 6 -41 29 -15 48 -12 53 8 4 14 16 19 46 20 81 3
110 32 132 134 5 24 20 84 34 133 13 50 45 171 71 270 68 265 86 329 95 339 5
5 6 15 3 24 -4 9 -2 13 3 9 6 -3 10 8 11 26 1 18 15 82 33 142 17 61 34 122
37 138 6 31 -16 70 -49 88 -41 22 -491 149 -528 149 -22 0 -48 -8 -62 -20z
m162 -147 c63 -19 174 -52 245 -73 152 -44 165 -49 165 -61 0 -12 -59 -221
-64 -226 -8 -8 -34 10 -39 27 -7 26 -65 37 -80 16 -11 -15 -17 -15 -80 0 -37
10 -67 22 -67 29 0 7 7 32 15 56 16 43 14 69 -4 69 -10 0 -51 -118 -51 -145 0
-7 11 -16 25 -19 39 -10 31 -28 -9 -21 -33 7 -34 6 -50 -43 -13 -37 -23 -52
-38 -54 -29 -4 -35 -28 -9 -35 40 -10 9 -23 -44 -18 -30 2 -57 0 -60 -5 -3 -6
-14 -10 -25 -10 -20 0 -38 -32 -21 -38 21 -7 11 -22 -15 -22 -23 0 -26 3 -21
25 6 35 -27 55 -43 25 -6 -11 -18 -20 -27 -20 -12 0 -14 7 -10 29 7 32 -19 54
-29 26 -8 -20 -44 -19 -44 0 0 9 7 29 15 44 11 23 19 27 40 24 18 -4 25 -1 25
10 0 9 -10 17 -22 19 -27 4 -27 6 14 111 22 57 33 76 41 68 8 -8 5 -29 -11
-73 -12 -35 -22 -66 -22 -70 0 -17 20 -7 32 16 11 20 16 22 38 13 l25 -10 -23
-4 c-14 -3 -22 -10 -20 -21 2 -11 -3 -16 -14 -14 -22 4 -24 -24 -2 -32 30 -12
52 -6 57 15 4 15 11 19 25 15 16 -5 22 0 31 25 11 33 38 36 33 3 -2 -10 -4
-29 -4 -42 0 -20 -4 -22 -29 -17 -21 5 -31 2 -35 -9 -3 -9 -15 -16 -26 -16
-17 0 -18 -3 -8 -15 6 -8 9 -23 5 -35 -5 -14 -2 -20 9 -20 19 0 56 35 56 53 0
9 11 12 34 9 28 -3 35 0 41 18 4 11 2 27 -4 33 -12 15 2 42 18 33 6 -4 8 -18
5 -32 -5 -18 -2 -24 10 -24 19 0 26 13 29 55 2 23 -2 30 -17 30 -11 0 -21 6
-24 14 -4 11 2 13 26 8 26 -5 31 -2 41 21 18 45 41 126 36 130 -13 14 -35 -14
-49 -62 -9 -31 -21 -56 -27 -56 -6 0 -44 10 -86 22 -64 18 -76 19 -84 7 -13
-21 -11 -27 11 -31 12 -2 17 -7 12 -15 -8 -13 -62 -6 -62 8 0 6 6 25 14 44
l15 34 70 -19 c39 -11 77 -20 85 -20 17 0 50 90 37 103 -5 5 -27 11 -50 14
-49 7 -56 -10 -10 -26 23 -8 30 -15 25 -27 -3 -8 -6 -20 -6 -25 0 -5 -7 -9
-16 -9 -11 0 -13 6 -9 19 8 27 -32 40 -49 15 -17 -23 -61 -12 -70 18 l-7 23
-16 -22 c-16 -24 -49 -32 -40 -10 2 6 22 58 43 115 l39 103 35 -6 c19 -4 87
-22 150 -42z m-90 -293 c0 -5 -9 -10 -20 -10 -11 0 -20 5 -20 10 0 6 9 10 20
10 11 0 20 -4 20 -10z m370 -51 c0 -6 -4 -7 -10 -4 -5 3 -10 11 -10 16 0 6 5
7 10 4 6 -3 10 -11 10 -16z m-94 -9 c15 -6 24 -13 21 -16 -8 -9 -67 6 -67 17
0 12 12 11 46 -1z m84 -32 c0 -13 -23 -5 -28 10 -2 7 2 10 12 6 9 -3 16 -11
16 -16z m-196 6 c20 -8 21 -24 1 -24 -8 0 -15 -7 -15 -15 0 -8 5 -15 10 -15 6
0 10 -4 10 -10 0 -16 -40 -11 -47 6 -5 14 11 64 21 64 2 0 11 -3 20 -6z m242
-97 c-21 -82 -21 -82 -54 -82 -20 0 -39 -7 -46 -17 -7 -10 -21 -18 -30 -18
-20 0 -21 -19 -1 -26 19 -8 20 -34 1 -34 -7 0 -19 6 -25 14 -7 8 -21 12 -31 9
-24 -6 -26 9 -5 27 8 7 15 19 15 26 0 8 9 14 19 14 11 0 21 8 23 17 2 12 14
17 43 17 39 1 39 1 57 61 26 86 26 85 42 79 12 -4 11 -18 -8 -87z m-162 54
c-4 -20 -1 -30 10 -34 14 -6 14 -9 -2 -37 -13 -24 -22 -29 -39 -25 -16 4 -25
-1 -33 -15 -6 -11 -20 -20 -30 -20 -27 0 -25 -16 1 -23 17 -5 20 -11 17 -32
-4 -21 0 -29 18 -37 17 -8 23 -17 19 -29 -8 -24 10 -32 34 -17 34 21 35 2 7
-87 -15 -47 -26 -93 -24 -102 6 -33 27 -24 38 16 8 29 15 39 25 35 8 -4 15
-14 15 -23 0 -28 -68 -273 -79 -284 -8 -8 -31 -5 -78 10 -38 12 -183 56 -323
98 -140 43 -259 81 -264 86 -5 4 7 52 29 111 21 57 49 133 63 171 18 50 29 67
43 67 18 0 18 -2 -1 -52 -24 -64 -24 -68 -4 -68 9 0 18 -9 21 -21 3 -11 16
-25 29 -30 13 -4 24 -13 24 -19 0 -12 -6 -13 -50 0 -22 6 -38 6 -44 0 -15 -15
2 -27 58 -44 l48 -15 14 36 c13 30 19 34 40 29 26 -7 34 5 48 70 7 29 6 30
-50 48 l-57 18 -18 -23 c-10 -13 -20 -21 -24 -18 -10 10 6 60 21 66 25 9 247
-75 240 -91 -2 -6 -16 -46 -31 -89 -21 -60 -24 -81 -15 -90 17 -18 33 10 55
97 17 68 30 88 47 71 3 -3 -6 -41 -19 -85 -14 -44 -23 -85 -20 -92 2 -7 21
-19 42 -27 32 -11 39 -11 46 0 14 22 11 26 -23 38 -21 8 -28 15 -22 21 7 7 21
6 43 -1 27 -10 32 -16 28 -35 -5 -29 4 -37 62 -53 36 -10 45 -10 52 1 14 21
11 26 -28 35 -36 8 -59 33 -30 33 9 0 20 24 32 68 10 37 20 72 22 78 2 6 -9
17 -25 23 -23 10 -28 17 -24 37 3 19 0 24 -16 24 -11 0 -22 -7 -26 -15 -3 -8
-12 -15 -21 -15 -31 0 -13 -29 27 -42 48 -16 67 -43 23 -32 -18 5 -30 2 -36
-7 -16 -26 -9 -47 17 -53 18 -5 24 -10 17 -17 -13 -13 -63 -1 -70 17 -3 8 0
27 5 44 9 26 8 31 -9 40 -12 7 -19 21 -19 39 0 22 7 31 30 41 36 15 38 23 6
38 -19 9 -27 8 -37 -4 -8 -10 -15 -11 -24 -4 -6 5 -14 7 -17 4 -4 -3 -22 -1
-42 4 -29 9 -38 7 -45 -5 -5 -10 -15 -14 -26 -9 -17 6 -17 8 2 29 11 12 23 30
26 40 9 26 27 21 27 -8 0 -21 5 -25 28 -25 22 0 32 7 42 28 l13 27 6 -25 c4
-16 15 -26 29 -28 22 -3 30 12 13 23 -15 9 13 91 30 86 70 -17 105 -11 79 15
-6 6 -6 21 2 42 16 41 40 44 32 3z m98 -16 c-6 -34 -22 -65 -32 -65 -13 0 -13
31 0 65 11 29 37 29 32 0z m-612 -106 c0 -12 -29 -24 -37 -16 -3 4 -3 13 0 21
6 16 37 11 37 -5z m58 -37 c2 -7 -2 -10 -12 -6 -9 3 -16 11 -16 16 0 13 23 5
28 -10z m77 -13 c10 -15 -1 -23 -20 -15 -9 3 -13 10 -10 16 8 13 22 13 30 -1z
m501 -12 c7 -20 -14 -69 -29 -64 -11 4 -13 36 -2 65 6 16 24 15 31 -1z m-356
-47 c8 -5 12 -12 8 -15 -9 -9 -48 4 -48 16 0 12 21 11 40 -1z m-210 -50 c25
-25 25 -30 3 -30 -28 0 -47 16 -40 34 8 21 13 20 37 -4z m540 -10 c0 -5 -6
-10 -14 -10 -8 0 -18 5 -21 10 -3 6 3 10 14 10 12 0 21 -4 21 -10z m-10 -52
c0 -23 -16 -39 -33 -32 -19 7 -19 7 -11 28 7 19 44 22 44 4z"/>
<path d="M1886 3055 c-5 -15 28 -35 59 -35 22 0 26 29 5 40 -27 15 -57 12 -64
-5z"/>
<path d="M1869 2973 c-11 -29 -6 -53 11 -53 13 0 32 49 26 67 -9 21 -26 15
-37 -14z"/>
<path d="M2327 2944 c-16 -16 -5 -33 24 -39 33 -8 60 8 44 24 -14 14 -59 23
-68 15z"/>
<path d="M2167 2863 c-15 -48 -15 -48 12 -60 37 -17 68 -16 75 3 4 11 14 14
34 9 23 -5 30 -2 39 18 18 38 -17 65 -41 32 -16 -23 -74 -9 -78 18 -6 39 -27
29 -41 -20z"/>
<path d="M2242 2889 c2 -7 10 -15 17 -17 8 -3 12 1 9 9 -2 7 -10 15 -17 17 -8
3 -12 -1 -9 -9z"/>
<path d="M2340 2805 c0 -8 5 -15 10 -15 6 0 10 7 10 15 0 8 -4 15 -10 15 -5 0
-10 -7 -10 -15z"/>
<path d="M1730 2640 c0 -12 48 -25 58 -16 8 9 -18 26 -40 26 -10 0 -18 -4 -18
-10z"/>
<path d="M2076 2583 c-11 -11 -6 -23 9 -23 8 0 15 4 15 9 0 13 -16 22 -24 14z"/>
<path d="M1863 2388 c-6 -7 -19 -39 -28 -70 -10 -36 -22 -58 -31 -58 -8 0 -14
7 -14 15 0 20 -26 19 -34 -1 -3 -9 -6 -20 -6 -24 0 -13 81 -33 91 -23 18 18
53 153 42 164 -7 7 -13 6 -20 -3z"/>
<path d="M2067 2113 c-18 -17 -5 -42 28 -53 61 -20 80 21 20 46 -40 16 -39 16
-48 7z"/>
</g>
</svg>
