<?xml version="1.0" standalone="no"?>
<!DOCTYPE svg PUBLIC "-//W3C//DTD SVG 20010904//EN"
 "http://www.w3.org/TR/2001/REC-SVG-20010904/DTD/svg10.dtd">
<svg version="1.0" xmlns="http://www.w3.org/2000/svg"
 width="100.000000pt" height="100.000000pt" viewBox="0 0 100.000000 100.000000"
 preserveAspectRatio="xMidYMid meet">

<g transform="translate(0.000000,100.000000) scale(0.100000,-0.100000)"
fill="#000000" stroke="none">
<path d="M260 987 c-41 -14 -45 -30 -56 -193 -8 -134 1 -170 57 -217 l40 -33
-10 -134 c-24 -299 -6 -410 69 -410 75 0 94 113 69 409 l-11 132 45 42 c32 30
47 53 52 80 7 38 -10 290 -20 308 -17 27 -171 38 -235 16z m60 -242 c12 0 16
20 18 108 2 98 4 107 22 107 18 0 20 -9 22 -107 2 -88 6 -108 18 -108 12 0 16
19 18 103 2 91 5 102 21 102 22 0 27 -26 37 -182 l7 -107 -52 -53 -52 -53 8
-110 c10 -139 10 -341 0 -377 -8 -32 -28 -36 -48 -11 -16 19 -19 210 -6 388
l8 110 -52 53 -52 53 6 113 c9 141 15 174 36 178 14 3 17 -11 21 -102 4 -84 8
-105 20 -105z"/>
<path d="M605 988 c-2 -7 -6 -164 -9 -348 -4 -184 -9 -384 -12 -444 -8 -131 4
-183 42 -192 35 -9 74 21 91 71 24 67 28 191 8 265 -30 111 -30 110 20 210 34
67 49 110 52 150 10 109 -47 229 -132 277 -46 26 -54 28 -60 11z m91 -90 c37
-39 56 -89 62 -154 4 -59 2 -69 -47 -171 -28 -60 -51 -118 -51 -128 0 -11 9
-52 20 -90 32 -110 21 -258 -21 -300 -33 -34 -41 -5 -35 135 4 69 9 265 12
437 7 340 5 332 60 271z"/>
</g>
</svg>
