<?xml version="1.0" standalone="no"?>
<!DOCTYPE svg PUBLIC "-//W3C//DTD SVG 20010904//EN"
 "http://www.w3.org/TR/2001/REC-SVG-20010904/DTD/svg10.dtd">
<svg version="1.0" xmlns="http://www.w3.org/2000/svg"
 width="367.000000pt" height="403.000000pt" viewBox="0 0 367.000000 403.000000"
 preserveAspectRatio="xMidYMid meet">

<g transform="translate(0.000000,403.000000) scale(0.100000,-0.100000)"
fill="#000000" stroke="none">
<path d="M1123 2902 c-162 -2 -233 -6 -233 -13 0 -8 -4 -8 -13 -1 -8 7 -113
11 -299 12 -284 1 -317 -3 -339 -34 -4 -4 -12 0 -18 10 -6 11 -11 13 -11 6 0
-7 -5 -10 -12 -6 -7 5 -8 3 -3 -5 4 -7 7 -455 6 -996 -1 -915 0 -983 16 -989
25 -10 2002 -5 2008 4 5 8 7 750 2 885 -2 59 -2 60 -29 57 -18 -2 -28 1 -28
10 0 7 -9 30 -20 51 -26 48 -25 53 6 28 15 -12 33 -21 40 -21 8 0 14 -5 14
-12 0 -8 3 -9 10 -2 7 7 9 183 8 510 l-3 499 -435 5 c-239 3 -540 4 -667 2z
m716 -364 c-2 -191 -3 -223 -9 -152 -8 90 -23 140 -40 129 -15 -9 -22 35 -16
99 4 42 2 68 -7 85 -12 20 -15 9 -20 -105 -5 -100 -11 -137 -28 -171 -23 -48
-75 -89 -125 -99 -68 -13 -165 59 -180 134 l-6 32 -26 -20 c-13 -11 -36 -20
-51 -20 -25 -1 -25 -1 6 -15 42 -18 73 -69 73 -119 0 -36 1 -38 17 -24 24 20
52 30 65 22 6 -4 -3 -13 -21 -20 -36 -15 -71 -67 -71 -107 0 -40 28 -84 66
-102 40 -19 56 -19 99 -1 57 24 85 115 50 162 -16 22 -19 34 -7 34 13 0 42
-67 42 -96 0 -39 -35 -99 -67 -113 l-28 -13 34 -14 c43 -18 41 -19 41 16 0 70
49 120 117 120 60 0 93 -36 93 -103 0 -43 -5 -54 -35 -84 -32 -32 -40 -35 -73
-29 l-38 6 4 -63 c3 -52 0 -67 -20 -96 -33 -49 -69 -72 -120 -78 -73 -8 -158
47 -174 114 -7 27 -39 43 -84 43 -21 0 -36 -9 -55 -35 -15 -19 -24 -39 -20
-45 3 -5 0 -10 -7 -10 -10 0 -10 -2 1 -9 7 -5 11 -13 7 -19 -3 -5 0 -14 7 -20
14 -11 81 20 69 33 -4 5 1 5 10 2 9 -3 19 -1 22 6 3 7 3 1 0 -13 -8 -32 -9
-32 -38 -32 -26 -1 -54 -23 -43 -35 14 -14 81 -13 110 2 20 10 34 12 41 5 11
-11 5 -20 -16 -24 -7 -2 -26 -8 -41 -14 -37 -15 -42 -15 -78 4 -18 9 -37 31
-46 51 l-15 36 -18 -39 c-52 -115 -184 -159 -281 -94 -75 49 -118 154 -85 205
9 13 16 31 16 39 0 19 47 56 71 56 27 0 23 -19 -6 -30 -14 -5 -30 -21 -37 -35
-6 -14 -15 -25 -19 -25 -31 0 -2 -116 40 -157 55 -53 162 -61 211 -15 13 12
28 22 32 22 16 0 35 62 34 110 -1 30 -8 54 -19 64 -9 10 -17 21 -17 25 0 5
-24 21 -54 37 -30 16 -52 32 -50 36 11 17 52 6 95 -24 53 -39 66 -55 74 -90
l7 -28 32 35 c27 28 41 35 70 35 21 0 45 -4 55 -10 16 -8 19 -4 24 27 8 44 42
96 80 118 l28 17 -44 28 c-51 32 -73 80 -64 137 5 28 3 32 -7 24 -7 -6 -34
-14 -59 -17 -43 -6 -49 -4 -82 29 -35 35 -49 87 -22 87 7 0 13 9 14 20 2 27
-9 25 -38 -6 -45 -49 -109 -84 -156 -84 -50 0 -107 21 -142 53 -30 28 -60 93
-61 131 l0 29 -20 -26 c-27 -35 -81 -45 -126 -24 -50 24 -68 58 -61 116 3 27
1 66 -4 86 -8 26 -7 41 0 48 8 8 11 -2 11 -33 0 -40 2 -43 15 -29 9 9 22 40
30 69 17 63 12 69 -50 71 -40 2 -39 2 10 9 28 4 310 8 628 8 l577 2 -1 -242z
m-1414 176 c14 -14 14 -19 3 -29 -20 -19 -95 -28 -105 -13 -12 20 -14 48 -3
48 6 0 10 -5 10 -11 0 -6 7 -3 16 5 20 21 58 20 79 0z m205 7 c0 -6 -4 -13
-10 -16 -5 -3 -10 1 -10 9 0 9 5 16 10 16 6 0 10 -4 10 -9z m192 -350 c63 -70
18 -175 -81 -188 -34 -5 -44 -1 -79 31 -49 45 -57 73 -36 126 21 53 55 71 118
66 41 -3 55 -9 78 -35z m1272 -104 c4 -28 13 -86 21 -127 15 -84 27 -195 19
-187 -3 3 -19 81 -35 174 -15 92 -32 179 -35 193 -7 22 -5 23 8 12 9 -7 18
-36 22 -65z m-263 -35 c-6 -2 -11 -10 -11 -17 0 -7 -6 -15 -14 -18 -17 -7 -9
25 14 61 l15 23 3 -23 c2 -12 -1 -24 -7 -26z m106 -75 c67 -158 123 -259 150
-272 42 -21 53 -37 51 -71 l-2 -34 -31 33 c-54 60 -79 92 -80 102 0 6 -10 31
-22 57 -12 26 -34 76 -49 110 -14 35 -40 90 -55 123 -30 63 -34 75 -21 75 4 0
31 -55 59 -123z m-937 78 c45 -24 63 -60 58 -122 -4 -46 -10 -60 -40 -90 -43
-43 -107 -55 -158 -29 l-33 16 5 -44 c9 -78 -38 -144 -109 -152 -69 -9 -139
45 -147 113 -7 50 10 48 23 -1 15 -62 62 -100 114 -93 72 10 113 69 102 149
-4 27 -9 47 -12 45 -5 -5 -53 40 -53 50 0 3 12 -2 26 -11 l25 -17 -6 34 c-13
66 29 148 85 170 22 9 87 -1 120 -18z m290 -54 c14 -10 36 -33 48 -52 66 -96
-30 -228 -150 -205 -57 11 -108 77 -108 141 0 112 123 180 210 116z m235 9 c3
-5 1 -10 -4 -10 -6 0 -11 5 -11 10 0 6 2 10 4 10 3 0 8 -4 11 -10z m-845 -104
c0 -2 -9 -6 -20 -9 -11 -3 -18 -1 -14 4 5 9 34 13 34 5z m-50 -22 c0 -3 -9
-17 -20 -31 l-20 -26 4 24 c3 13 5 27 5 32 1 8 31 10 31 1z m1546 -112 c12
-30 12 -33 -3 -30 -11 2 -17 16 -19 48 -2 25 -1 38 3 30 3 -8 12 -30 19 -48z
m-1466 18 c0 -5 -5 -10 -11 -10 -5 0 -7 5 -4 10 3 6 8 10 11 10 2 0 4 -4 4
-10z m327 -177 c1 -16 -4 -18 -33 -15 -37 5 -44 21 -18 47 15 14 18 14 33 1 9
-8 17 -23 18 -33z m-122 27 c3 -5 1 -10 -4 -10 -6 0 -11 5 -11 10 0 6 2 10 4
10 3 0 8 -4 11 -10z m415 -5 c0 -2 -9 -3 -19 -2 -11 0 -18 5 -15 9 4 6 34 0
34 -7z m477 -30 c84 -55 74 -197 -17 -235 -45 -18 -107 -7 -141 26 -36 35 -56
93 -41 120 10 16 11 12 12 -25 0 -37 5 -49 36 -77 46 -44 107 -47 152 -9 37
31 50 90 30 132 -17 36 -73 73 -112 73 -24 0 -28 3 -16 10 18 13 66 5 97 -15z
m-1025 -46 c30 -16 48 -52 47 -94 -2 -34 -3 -35 -6 -10 -8 55 -47 92 -108 105
-30 6 -55 14 -55 17 0 7 102 -8 122 -18z m-166 -14 c-20 -14 -40 -25 -44 -25
-13 1 53 50 67 50 8 0 -3 -11 -23 -25z m1558 -15 c30 -11 37 -50 9 -50 -20 0
-53 28 -53 47 0 16 10 16 44 3z m-587 -97 c-3 -2 -8 5 -12 16 -3 12 -14 21
-23 22 -10 0 -12 3 -5 5 7 3 10 13 7 22 -3 9 4 0 16 -21 12 -22 19 -41 17 -44z
m-199 37 c4 0 18 -3 31 -7 17 -4 22 -3 17 5 -4 7 -2 12 3 12 6 0 11 -4 11 -9
0 -5 9 -11 20 -14 11 -3 20 -10 20 -16 0 -16 -30 -13 -36 3 -4 10 -13 12 -34
6 -16 -4 -32 -5 -36 -2 -4 4 -5 1 -2 -7 2 -8 10 -17 18 -19 7 -3 10 0 6 7 -4
6 -3 11 3 11 20 0 21 -19 0 -33 -22 -16 -10 -33 16 -23 9 3 15 -1 15 -10 0 -8
4 -12 10 -9 19 12 50 14 47 3 -1 -6 3 -12 9 -15 7 -2 10 5 7 22 -6 29 -1 31
22 8 14 -14 18 -14 26 -2 5 9 9 10 9 2 0 -15 -49 -50 -82 -58 -47 -12 -113 39
-118 91 -4 32 2 90 7 72 2 -10 8 -18 11 -18z m-805 -32 c6 -4 8 -10 4 -15 -12
-11 -27 18 -25 47 l1 25 4 -25 c3 -14 10 -28 16 -32z m122 43 c3 -5 2 -12 -3
-15 -5 -3 -9 1 -9 9 0 17 3 19 12 6z m3 -41 c20 0 13 -16 -7 -17 -11 -1 -23 9
-31 25 -11 26 -11 26 7 9 11 -9 25 -17 31 -17z m612 -18 c37 -37 60 -91 60
-143 0 -40 -40 -92 -93 -118 -61 -30 -122 -23 -171 20 -30 26 -39 40 -61 104
-6 17 -9 15 -19 -15 -23 -63 -122 -101 -174 -64 -24 17 -52 64 -52 89 0 22 27
19 40 -5 6 -11 15 -18 21 -15 5 4 7 10 4 15 -3 4 4 6 15 3 19 -5 19 -7 4 -18
-15 -10 -15 -12 -1 -18 10 -4 17 2 21 16 6 24 -8 37 -41 37 -15 0 -23 6 -23
17 0 9 3 14 6 10 4 -3 13 0 20 8 11 11 21 11 47 3 17 -6 52 -12 76 -14 37 -3
41 -2 31 11 -6 8 -10 20 -7 27 3 8 10 2 17 -15 l13 -27 18 30 c23 37 31 38 24
3 -4 -24 -1 -28 20 -28 14 0 25 3 25 8 0 4 -4 7 -10 7 -5 0 -10 5 -10 10 0 6
11 10 24 10 13 0 29 7 36 15 10 12 9 15 -6 15 -16 0 -17 2 -4 11 12 8 12 12 2
16 -29 11 10 33 60 33 45 0 55 -4 88 -38z m259 -8 c13 -12 -8 -10 -29 2 l-25
15 25 -7 c14 -3 27 -8 29 -10z m-789 -59 c-7 -8 -18 -15 -24 -15 -6 0 -2 7 8
15 25 19 32 19 16 0z m853 -66 c-20 -39 -10 -99 18 -106 10 -3 16 -9 13 -14
-3 -5 4 -9 15 -9 12 0 21 5 21 11 0 5 -5 7 -12 3 -7 -5 -8 -3 -3 6 7 11 12 9
23 -8 11 -17 18 -20 33 -11 11 5 16 15 13 21 -4 6 -3 8 3 5 6 -4 16 -1 22 7 9
11 9 15 -1 19 -8 4 -7 6 5 6 19 1 22 25 7 68 l-10 28 21 -25 c27 -32 19 -74
-23 -117 -26 -27 -40 -33 -73 -33 -75 0 -125 82 -91 149 9 17 21 31 25 31 5 0
3 -14 -6 -31z m-1013 11 c0 -5 -5 -10 -11 -10 -5 0 -7 5 -4 10 3 6 8 10 11 10
2 0 4 -4 4 -10z m813 3 c-13 -2 -23 -9 -23 -14 0 -5 -5 -9 -11 -9 -8 0 -8 5 1
15 7 8 22 14 34 14 20 -2 20 -2 -1 -6z m-852 -64 c-5 -13 -10 -19 -10 -12 -1
15 10 45 15 40 3 -2 0 -15 -5 -28z m107 4 c-23 -6 -19 -42 4 -40 10 1 18 5 18
9 0 4 5 8 10 8 18 0 -7 -37 -28 -42 -26 -7 -46 26 -32 52 6 11 18 19 28 19 16
-1 16 -2 0 -6z m1032 -3 c0 -5 -4 -10 -10 -10 -5 0 -10 5 -10 10 0 6 5 10 10
10 6 0 10 -4 10 -10z m-45 -40 c-8 -13 -35 0 -35 16 0 12 4 12 20 4 11 -6 18
-15 15 -20z m-195 -10 c12 -8 11 -10 -7 -10 -13 0 -23 5 -23 10 0 13 11 13 30
0z m-876 -53 l16 -32 -25 28 c-14 15 -25 33 -25 38 0 18 18 0 34 -34z m161
-17 c-4 -7 2 -9 18 -5 22 6 97 -17 97 -29 0 -3 -16 2 -35 10 -43 17 -60 18
-77 1 -7 -7 -21 -16 -31 -20 -20 -7 -37 -46 -37 -84 0 -20 4 -24 18 -18 9 4
26 10 37 12 20 5 20 5 0 -10 -11 -8 -24 -13 -29 -10 -5 4 -6 1 -2 -5 5 -8 2
-10 -8 -6 -9 3 -16 1 -16 -5 0 -16 16 -14 48 6 l27 17 -29 -32 c-27 -29 -30
-30 -42 -14 -29 37 -12 132 29 164 22 18 22 18 -9 7 -22 -7 -42 -7 -65 0 l-34
11 38 -6 c23 -3 44 0 53 7 8 6 14 8 14 5 0 -4 8 -2 18 3 22 13 25 13 17 1z
m910 -13 c22 -12 50 -38 63 -57 59 -87 -17 -230 -123 -230 -39 0 -112 39 -146
78 -23 26 -29 42 -29 80 0 50 25 104 63 134 33 26 122 24 172 -5z m-635 -12
c10 -12 9 -15 -4 -15 -10 0 -15 4 -12 9 4 5 0 12 -6 14 -8 4 -9 6 -2 6 6 1 17
-6 24 -14z m-206 -64 c8 -11 8 -13 -1 -8 -7 4 -16 -4 -22 -20 -11 -28 -11 -28
-6 -2 3 18 0 26 -10 26 -8 0 -12 -4 -9 -9 3 -4 1 -8 -4 -8 -6 0 -12 7 -16 15
-4 11 1 15 17 15 17 0 19 2 8 9 -11 7 -10 10 5 13 10 2 21 -1 23 -7 2 -5 9
-16 15 -24z m307 -8 c-12 -20 -14 -14 -5 12 4 9 9 14 11 11 3 -2 0 -13 -6 -23z
m-391 3 c0 -11 -19 -15 -25 -6 -3 5 1 10 9 10 9 0 16 -2 16 -4z m240 -16 c0
-5 -2 -10 -4 -10 -3 0 -8 5 -11 10 -3 6 -1 10 4 10 6 0 11 -4 11 -10z m300
-19 c0 -13 -28 -21 -47 -14 -15 6 -14 8 7 14 36 10 40 10 40 0z m-371 -43 c-9
-31 -16 -39 -54 -59 -11 -6 -5 1 13 16 17 15 32 34 32 44 0 15 8 31 16 31 1 0
-1 -14 -7 -32z m-149 -58 c0 -5 -7 -7 -15 -4 -8 4 -15 8 -15 10 0 2 7 4 15 4
8 0 15 -4 15 -10z m190 -95 c13 -14 21 -25 18 -25 -2 0 -15 11 -28 25 -13 14
-21 25 -18 25 2 0 15 -11 28 -25z m93 -32 c-13 -2 -33 -2 -45 0 -13 2 -3 4 22
4 25 0 35 -2 23 -4z"/>
<path d="M723 2753 c-7 -2 -13 -11 -13 -19 0 -9 5 -12 11 -8 8 4 9 -3 4 -25
-10 -48 20 -41 33 8 8 32 7 41 -5 45 -8 3 -15 6 -16 5 -1 0 -8 -3 -14 -6z"/>
<path d="M898 2753 c-16 -2 -28 -8 -28 -12 0 -4 -7 -8 -15 -8 -8 0 -15 4 -15
9 0 16 -18 7 -23 -12 -3 -12 -14 -20 -25 -20 -28 0 -40 -39 -17 -53 32 -17 56
-47 62 -77 l5 -30 28 38 c26 36 101 82 134 82 12 0 16 10 16 40 0 39 -1 41
-32 39 -18 -1 -40 1 -48 3 -8 3 -27 3 -42 1z"/>
<path d="M1402 2715 c-2 -59 30 -139 43 -108 11 26 12 62 2 56 -5 -3 -11 4
-14 16 -3 12 -9 21 -14 21 -4 0 -10 15 -12 33 -3 23 -4 18 -5 -18z"/>
<path d="M1580 2710 c0 -38 4 -50 15 -50 9 0 33 -9 54 -19 l38 -20 1 32 c2 44
-9 92 -17 78 -4 -6 -21 -14 -39 -17 -29 -6 -32 -4 -32 20 0 14 -4 26 -10 26
-5 0 -10 -22 -10 -50z"/>
<path d="M1104 2736 c-3 -8 -14 -18 -25 -21 -11 -4 -19 -15 -19 -28 0 -18 2
-19 10 -7 8 13 10 12 10 -4 0 -11 3 -16 7 -13 3 4 13 1 21 -5 20 -17 40 -18
46 -2 3 8 1 14 -4 14 -5 0 -10 17 -12 37 -3 38 -24 56 -34 29z"/>
<path d="M1289 2738 c-1 -7 -3 -23 -4 -35 -1 -13 2 -23 6 -23 5 0 9 16 9 35 0
33 -8 50 -11 23z"/>
<path d="M1452 2730 c0 -14 2 -19 5 -12 2 6 2 18 0 25 -3 6 -5 1 -5 -13z"/>
<path d="M1038 2734 c-5 -4 -8 -21 -7 -38 0 -30 0 -30 10 -7 11 27 8 57 -3 45z"/>
<path d="M1192 2720 c-7 -11 -8 -20 -3 -20 6 0 11 -19 13 -42 2 -24 5 -36 8
-28 3 8 3 37 0 63 -5 43 -6 46 -18 27z"/>
<path d="M1445 2690 c-3 -5 -1 -10 4 -10 6 0 11 5 11 10 0 6 -2 10 -4 10 -3 0
-8 -4 -11 -10z"/>
<path d="M1470 2658 c0 -23 3 -29 9 -19 8 12 4 51 -5 51 -2 0 -4 -15 -4 -32z"/>
<path d="M951 2601 c-11 -11 -21 -17 -23 -15 -10 9 -47 -44 -53 -74 -3 -19 -7
-37 -8 -41 -3 -11 26 -81 35 -81 4 0 5 -6 2 -14 -7 -17 58 -56 111 -67 46 -9
118 19 136 53 6 11 19 28 30 39 20 20 25 54 10 63 -5 3 -7 14 -4 25 3 11 -6
29 -21 46 -14 15 -26 32 -26 37 0 4 -15 17 -32 28 -45 27 -131 27 -157 1z
m119 -111 c-7 -4 -10 -12 -7 -17 3 -5 2 -15 -2 -22 -10 -15 -71 -6 -71 10 0
15 61 48 77 42 11 -4 12 -8 3 -13z m-100 -24 c-7 -7 -14 -6 -21 1 -9 9 -7 12
9 10 14 -1 18 -5 12 -11z"/>
<path d="M1025 2480 c-3 -5 1 -10 10 -10 9 0 13 5 10 10 -3 6 -8 10 -10 10 -2
0 -7 -4 -10 -10z"/>
<path d="M1306 2571 c-4 -5 -2 -12 3 -15 5 -4 12 -2 15 3 4 5 2 12 -3 15 -5 4
-12 2 -15 -3z"/>
<path d="M694 2520 c0 -11 6 -20 12 -20 7 0 14 -5 16 -11 2 -7 11 0 20 14 16
24 16 25 -1 20 -10 -3 -22 0 -25 6 -11 17 -22 13 -22 -9z"/>
<path d="M1230 2461 c0 -25 3 -28 25 -23 36 7 37 15 4 34 l-29 17 0 -28z"/>
<path d="M1790 2136 c0 -2 8 -10 18 -17 15 -13 16 -12 3 4 -13 16 -21 21 -21
13z"/>
<path d="M1709 2059 c-7 -4 -2 -13 12 -22 25 -18 39 -14 39 11 0 18 -30 24
-51 11z"/>
<path d="M695 2384 l-30 -14 30 4 c17 3 37 1 45 -4 9 -6 17 -5 22 3 5 8 8 6 8
-5 0 -10 6 -18 14 -18 8 0 16 -7 18 -15 2 -10 8 -12 17 -5 13 7 13 11 0 26
-13 16 -69 45 -86 44 -4 -1 -21 -7 -38 -16z"/>
<path d="M650 2349 c0 -5 5 -7 10 -4 6 3 10 8 10 11 0 2 -4 4 -10 4 -5 0 -10
-5 -10 -11z"/>
<path d="M820 2309 c0 -5 5 -7 10 -4 6 3 10 8 10 11 0 2 -4 4 -10 4 -5 0 -10
-5 -10 -11z"/>
<path d="M684 2275 c-19 -15 -19 -15 1 -9 16 6 18 4 8 -6 -10 -11 -16 -10 -32
4 -19 17 -19 17 -14 -3 9 -37 26 -41 56 -15 40 34 22 61 -19 29z"/>
<path d="M695 2230 c-8 -14 3 -30 21 -30 18 0 18 8 0 26 -9 9 -17 10 -21 4z"/>
<path d="M985 2200 c-3 -5 1 -10 10 -10 9 0 13 5 10 10 -3 6 -8 10 -10 10 -2
0 -7 -4 -10 -10z"/>
<path d="M2165 1680 c-3 -5 -1 -10 4 -10 6 0 11 5 11 10 0 6 -2 10 -4 10 -3 0
-8 -4 -11 -10z"/>
<path d="M1195 1611 c-6 -11 9 -23 19 -14 9 9 7 23 -3 23 -6 0 -12 -4 -16 -9z"/>
<path d="M1104 1488 c-10 -15 1 -19 26 -10 l24 9 -22 5 c-12 4 -25 2 -28 -4z"/>
<path d="M1243 1431 c0 -11 5 -18 9 -15 4 3 5 11 1 19 -7 21 -12 19 -10 -4z"/>
<path d="M1592 1275 c-9 -11 -9 -15 -1 -15 6 0 9 -7 5 -15 -4 -13 -2 -14 14
-5 22 12 28 50 8 50 -7 -1 -19 -7 -26 -15z"/>
<path d="M1640 1250 c0 -8 27 -20 56 -24 22 -3 25 -12 8 -26 -13 -12 -17 -11
-25 1 -7 11 -9 11 -9 -3 0 -10 -6 -18 -12 -19 -7 0 1 -7 17 -14 27 -12 32 -11
48 5 21 24 21 26 -3 57 -12 15 -20 20 -20 12 0 -9 -3 -10 -8 -3 -9 14 -52 25
-52 14z"/>
<path d="M1525 1190 c-3 -5 -1 -10 4 -10 6 0 11 5 11 10 0 6 -2 10 -4 10 -3 0
-8 -4 -11 -10z"/>
<path d="M1640 1149 c0 -5 5 -7 10 -4 6 3 10 8 10 11 0 2 -4 4 -10 4 -5 0 -10
-5 -10 -11z"/>
<path d="M1605 1109 c-7 -21 -16 -24 -33 -9 -6 6 -10 7 -7 4 3 -4 -1 -14 -8
-23 -11 -14 -10 -14 6 -2 12 10 17 10 17 2 0 -8 9 -10 23 -7 15 4 13 2 -5 -6
-16 -7 -28 -19 -28 -27 0 -13 2 -13 9 -2 7 11 9 11 14 0 4 -10 6 -10 6 -1 1 6
6 12 12 12 5 0 7 -4 4 -10 -7 -12 15 -13 33 -2 14 10 6 42 -11 42 -6 0 -7 3
-4 6 4 4 13 1 22 -6 12 -10 16 -8 23 11 6 15 11 18 16 11 4 -7 13 -12 19 -12
10 1 -15 20 -25 21 -2 0 -20 4 -40 8 -32 8 -38 6 -43 -10z"/>
<path d="M1515 1090 c-3 -5 -1 -10 4 -10 6 0 11 5 11 10 0 6 -2 10 -4 10 -3 0
-8 -4 -11 -10z"/>
<path d="M1696 558 c3 -5 10 -6 15 -3 13 9 11 12 -6 12 -8 0 -12 -4 -9 -9z"/>
</g>
</svg>
